# xmcd CD database file
#
# Track frame offsets:
#	150
#	19603
#	45383
#	59841
#	80923
#	97787
#	113569
#	130756
#	143937
#	165921
#	190436
#	207879
#	231557
#	249177
#	266752
#	290688
#	309926
#	331872
#
# Disc length: 4643 seconds
#
# Revision: 3
# Processed by: cddbd v1.5.2PL0 Copyright (c) Steve Scherf et al.
# Submitted via: CDex 1.70beta2
#
DISCID=fb122112
DTITLE=Erasure - On The Road To Nashville (Saturday, May 6, 2006 8,00 pm, Ryman Auditorium, Nashville, TN) [CD) (1 of 2)
DYEAR=2007
DGENRE=Country Pop
TTITLE0=Boy
TTITLE1=Blue Savannah
TTITLE2=Oh L'Amour
TTITLE3=Alien
TTITLE4=Breathe
TTITLE5=Victim Of Love
TTITLE6=How Many Times?
TTITLE7=Spiralling
TTITLE8=Sometimes
TTITLE9=Tenderest Moments
TTITLE10=Ship Of Fools
TTITLE11=Love To Hate You
TTITLE12=Against My View
TTITLE13=Piano Song
TTITLE14=Rock Me Gently
TTITLE15=Stop!
TTITLE16=Chains Of Love
TTITLE17=A Little Respect
EXTD=YEAR: 2007
EXTT0=
EXTT1=
EXTT2=
EXTT3=
EXTT4=
EXTT5=
EXTT6=
EXTT7=
EXTT8=
EXTT9=
EXTT10=
EXTT11=
EXTT12=
EXTT13=
EXTT14=
EXTT15=
EXTT16=
EXTT17=
PLAYORDER=
